<svg width="32" height="32" viewBox="0 0 32 32" fill="none" xmlns="http://www.w3.org/2000/svg">
  <!-- Card background -->
  <rect x="4" y="2" width="24" height="28" rx="3" fill="#f0e6d3" stroke="#c9a44c" stroke-width="1.5"/>
  <!-- Top-left A -->
  <text x="7" y="11" font-family="Georgia, serif" font-size="7" font-weight="bold" fill="#0a0a14">A</text>
  <!-- Center spade -->
  <path d="M16 10C16 10 12 14 12 16.5C12 18.2 13.2 19.5 15 19.8C14.2 20.5 13.5 21.5 13.5 22.5H15.2C15.2 21.5 15.5 20.8 16 20.5C16.5 20.8 16.8 21.5 16.8 22.5H18.5C18.5 21.5 17.8 20.5 17 19.8C18.8 19.5 20 18.2 20 16.5C20 14 16 10 16 10Z" fill="#0a0a14"/>
  <!-- Bottom-right A (rotated) -->
  <text x="21.5" y="28" font-family="Georgia, serif" font-size="7" font-weight="bold" fill="#0a0a14" transform="rotate(180 23 26)">A</text>
</svg>
